<svg width="512" height="512" viewBox="0 0 512 512" fill="none" xmlns="http://www.w3.org/2000/svg">
<g clip-path="url(#clip0_134_124)">
<path fill-rule="evenodd" clip-rule="evenodd" d="M66.1721 72.3833V440.603C66.1721 478.838 151.388 509.833 256.5 509.833V72.3833H66.1721Z" fill="#0072C6"/>
<path fill-rule="evenodd" clip-rule="evenodd" d="M253.892 509.827H256.5C361.612 509.827 446.828 478.844 446.828 440.61V72.3896H253.892V509.833V509.827Z" fill="#0072C6"/>
<path opacity="0.15" fill-rule="evenodd" clip-rule="evenodd" d="M253.892 509.827H256.5C361.612 509.827 446.828 478.844 446.828 440.61V72.3896H253.892V509.833V509.827Z" fill="white"/>
<path fill-rule="evenodd" clip-rule="evenodd" d="M446.828 72.3835C446.828 110.612 361.612 141.601 256.5 141.601C151.388 141.601 66.1721 110.612 66.1721 72.3835C66.1721 34.1555 151.388 3.1665 256.5 3.1665C361.612 3.1665 446.828 34.1555 446.828 72.3835Z" fill="white"/>
<path fill-rule="evenodd" clip-rule="evenodd" d="M407.912 68.3933C407.912 93.6316 340.124 114.063 256.5 114.063C172.876 114.063 105.075 93.6316 105.075 68.3933C105.075 43.155 172.876 22.7236 256.5 22.7236C340.124 22.7236 407.912 43.1676 407.912 68.3933Z" fill="#7FBA00"/>
<path fill-rule="evenodd" clip-rule="evenodd" d="M376.197 96.3107C396.017 88.5903 407.931 78.9257 407.931 68.4187C407.925 43.1803 340.136 22.7363 256.5 22.7363C172.864 22.7363 105.088 43.1803 105.088 68.4187C105.088 78.9193 116.996 88.5903 136.822 96.3107C164.502 85.5187 207.763 78.5583 256.506 78.5583C305.249 78.5583 348.498 85.5187 376.197 96.3107Z" fill="#B8D432"/>
<path fill-rule="evenodd" clip-rule="evenodd" d="M196.052 327.984C196.052 339.429 191.922 348.289 183.649 354.565C175.376 360.842 163.969 363.989 149.396 363.989C137 363.989 126.639 361.747 118.316 357.257V330.334C127.921 338.523 138.503 342.621 150.062 342.621C155.645 342.621 159.966 341.5 163.011 339.251C166.056 337.003 167.579 334.039 167.579 330.328C167.579 326.686 166.113 323.519 163.182 320.828C160.251 318.136 154.288 314.659 145.298 310.397C126.976 301.771 117.821 289.978 117.821 275.076C117.821 264.258 121.811 255.582 129.805 249.046C137.799 242.51 148.4 239.248 161.628 239.248C173.358 239.248 183.065 240.8 190.786 243.878V269.027C182.691 263.416 173.473 260.617 163.144 260.617C157.955 260.617 153.85 261.719 150.836 263.929C149.404 264.916 148.24 266.245 147.452 267.794C146.663 269.343 146.274 271.065 146.319 272.802C146.319 276.615 147.531 279.743 149.967 282.182C152.403 284.62 157.377 287.635 164.914 291.226C176.144 296.558 184.137 301.961 188.921 307.458C193.705 312.955 196.052 319.808 196.052 327.984ZM325.285 300.738C325.285 314.925 322.068 327.243 315.648 337.662C309.227 348.08 300.18 355.401 288.513 359.613L323.35 391.995H288.177L263.301 363.983C252.636 363.597 243.012 360.759 234.441 355.49C225.87 350.221 219.247 343.001 214.59 333.83C209.933 324.659 207.592 314.437 207.592 303.17C207.592 290.668 210.117 279.522 215.167 269.737C220.217 259.952 227.323 252.421 236.484 247.152C245.645 241.883 256.132 239.248 267.983 239.248C279.029 239.248 288.932 241.8 297.674 246.905C306.417 252.01 313.192 259.261 318.027 268.685C322.861 278.109 325.285 288.8 325.285 300.738ZM296.811 302.258C296.811 290.029 294.16 280.377 288.849 273.277C283.539 266.177 276.288 262.631 267.07 262.631C257.686 262.631 250.181 266.19 244.535 273.302C238.888 280.415 236.078 289.902 236.078 301.733C236.078 313.513 238.838 322.911 244.363 329.948C249.889 336.984 257.23 340.499 266.391 340.499C275.723 340.499 283.114 337.092 288.589 330.283C294.064 323.475 296.811 314.14 296.811 302.258ZM416.674 361.88H345.142V241.275H372.194V339.847H416.667L416.674 361.88Z" fill="white"/>
</g>
<defs>
<clipPath id="clip0_134_124">
<rect width="512" height="512" fill="white"/>
</clipPath>
</defs>
</svg>
