<svg width="512" height="512" viewBox="0 0 512 512" fill="none" xmlns="http://www.w3.org/2000/svg">
<g clip-path="url(#clip0_133_143)">
<mask id="mask0_133_143" style="mask-type:luminance" maskUnits="userSpaceOnUse" x="1" y="1" width="511" height="511">
<path d="M1 1.62769H511.372V512H1V1.62769Z" fill="white"/>
</mask>
<g mask="url(#mask0_133_143)">
<path d="M501.758 234.088L278.917 11.2644C275.865 8.20988 272.24 5.78676 268.251 4.13354C264.261 2.48032 259.985 1.62939 255.667 1.62939C251.348 1.62939 247.072 2.48032 243.083 4.13354C239.093 5.78676 235.469 8.20988 232.416 11.2644L186.16 57.5433L244.847 116.231C251.747 113.887 259.164 113.521 266.261 115.174C273.358 116.827 279.851 120.433 285.005 125.584C290.188 130.772 293.806 137.314 295.445 144.462C297.084 151.61 296.679 159.075 294.275 166.003L350.857 222.569C357.787 220.162 365.255 219.756 372.405 221.399C379.555 223.041 386.097 226.665 391.282 231.855C394.913 235.486 397.794 239.797 399.76 244.542C401.726 249.287 402.737 254.372 402.737 259.508C402.737 264.643 401.726 269.729 399.76 274.473C397.794 279.218 394.913 283.529 391.282 287.16C383.939 294.495 373.985 298.615 363.607 298.615C353.229 298.615 343.275 294.495 335.933 287.16C330.478 281.697 326.762 274.742 325.252 267.171C323.742 259.6 324.505 251.752 327.446 244.614L274.679 191.864V330.706C280.249 333.457 285.083 337.496 288.78 342.487C292.478 347.478 294.934 353.279 295.944 359.408C296.953 365.537 296.488 371.819 294.587 377.733C292.686 383.647 289.403 389.022 285.01 393.415C281.379 397.047 277.068 399.927 272.324 401.893C267.579 403.859 262.494 404.87 257.358 404.87C252.222 404.87 247.137 403.859 242.392 401.893C237.648 399.927 233.337 397.047 229.706 393.415C226.073 389.784 223.191 385.472 221.225 380.727C219.259 375.982 218.247 370.896 218.247 365.76C218.247 360.623 219.259 355.537 221.225 350.792C223.191 346.047 226.073 341.736 229.706 338.105C233.365 334.438 237.714 331.533 242.503 329.556V189.437C237.734 187.473 233.4 184.585 229.75 180.941C226.101 177.297 223.207 172.968 221.235 168.202C219.264 163.436 218.253 158.327 218.262 153.17C218.27 148.012 219.298 142.907 221.285 138.148L163.42 80.2717L10.6089 233.044C4.45107 239.214 0.992676 247.575 0.992676 256.292C0.992676 265.009 4.45107 273.37 10.6089 279.539L233.46 502.391C239.63 508.547 247.99 512.004 256.705 512.004C265.421 512.004 273.781 508.547 279.95 502.391L501.758 280.584C507.915 274.414 511.374 266.053 511.374 257.336C511.374 248.619 507.915 240.258 501.758 234.088Z" fill="#F03C2E"/>
</g>
</g>
<defs>
<clipPath id="clip0_133_143">
<rect width="511" height="511" fill="white" transform="translate(1 1)"/>
</clipPath>
</defs>
</svg>
