<svg width="512" height="512" viewBox="0 0 512 512" fill="none" xmlns="http://www.w3.org/2000/svg">
<g clip-path="url(#clip0_160_129)">
<path d="M90.6667 6H421.333C471.467 6 512 46.5333 512 96.6667V414.533C512 464.667 471.467 505.2 421.333 505.2H90.6667C40.5333 505.2 0 464.667 0 414.533V96.6667C0 46.5333 40.5333 6 90.6667 6Z" fill="#00005B"/>
<path d="M121.6 355.867V136.133C121.6 134.64 122.24 133.787 123.733 133.787C127.36 133.787 130.773 133.787 135.68 133.573C140.8 133.36 146.133 133.36 151.893 133.147C157.653 132.933 163.84 132.933 170.453 132.72C177.067 132.507 183.467 132.507 189.867 132.507C207.36 132.507 221.867 134.64 233.813 139.12C244.48 142.747 254.293 148.72 262.4 156.613C269.227 163.44 274.56 171.76 277.973 180.933C281.173 189.893 282.88 199.067 282.88 208.667C282.88 227.013 278.613 242.16 270.08 254.107C261.547 266.053 249.6 275.013 235.733 280.133C221.227 285.467 205.227 287.387 187.733 287.387C182.613 287.387 179.2 287.387 177.067 287.173C174.933 286.96 171.947 286.96 167.893 286.96V355.44C168.107 356.933 167.04 358.213 165.547 358.427H164.693H124.16C122.453 358.427 121.6 357.573 121.6 355.653V355.867ZM168.107 175.173V246.853C171.093 247.067 173.867 247.28 176.427 247.28H187.733C196.053 247.28 204.373 246 212.267 243.44C219.093 241.52 225.067 237.467 229.76 232.133C234.24 226.8 236.373 219.547 236.373 210.16C236.587 203.547 234.88 196.933 231.467 191.173C227.84 185.627 222.72 181.36 216.533 179.013C208.64 175.813 200.107 174.533 191.36 174.747C185.813 174.747 180.907 174.747 176.853 174.96C172.587 174.747 169.6 174.96 168.107 175.173Z" fill="#9999FF"/>
<path d="M313.6 187.76H350.933C353.067 187.76 354.773 189.253 355.413 191.173C356.053 192.88 356.48 194.587 356.693 196.507C357.12 198.64 357.547 200.987 357.76 203.12C357.973 205.467 358.187 208.027 358.187 210.8C364.587 203.333 372.267 197.147 381.013 192.453C390.827 186.907 402.133 184.133 413.44 184.133C414.933 183.92 416.213 184.987 416.427 186.48V187.333V228.933C416.427 230.64 415.36 231.28 413.013 231.28C405.333 231.067 397.44 231.707 389.973 233.413C383.787 234.693 377.813 236.613 372.053 239.173C368 241.093 364.16 243.653 361.173 247.067V355.867C361.173 358 360.32 358.853 358.4 358.853H316.373C314.667 359.067 313.173 358 312.96 356.293V355.44V237.253C312.96 232.133 312.96 226.8 312.747 221.253C312.533 215.707 312.533 210.16 312.32 204.613C312.32 199.707 311.893 195.013 311.467 190.107C311.253 189.04 311.893 187.973 312.96 187.76C312.96 187.547 313.387 187.547 313.6 187.76Z" fill="#9999FF"/>
</g>
<defs>
<clipPath id="clip0_160_129">
<rect width="512" height="499.2" fill="white" transform="translate(0 6)"/>
</clipPath>
</defs>
</svg>
