<svg width="512" height="512" viewBox="0 0 512 512" fill="none" xmlns="http://www.w3.org/2000/svg">
<g clip-path="url(#clip0_134_143)">
<path d="M482.541 0L441.348 461.471L256.181 512.805L71.5251 461.543L30.3752 0H482.541Z" fill="#264DE4"/>
<path d="M406.081 432.087L441.284 37.7383H256.458V473.568L406.081 432.087Z" fill="#2965F1"/>
<path d="M124.71 208.918L129.784 265.524H256.458V208.918H124.71Z" fill="#EBEBEB"/>
<path d="M256.458 94.3447H256.262H114.516L119.662 150.952H256.458V94.3447Z" fill="#EBEBEB"/>
<path d="M256.458 414.825V355.931L256.21 355.997L193.167 338.974L189.137 293.828H158.503H132.313L140.244 382.708L256.198 414.897L256.458 414.825Z" fill="#EBEBEB"/>
<path d="M325.967 265.523L319.396 338.938L256.262 355.978V414.87L372.309 382.708L373.16 373.144L386.462 224.118L387.843 208.918L398.062 94.3447H256.262V150.952H336.027L330.876 208.918H256.262V265.523H325.967Z" fill="white"/>
</g>
<defs>
<clipPath id="clip0_134_143">
<rect width="512" height="512" fill="white"/>
</clipPath>
</defs>
</svg>
