<svg width="512" height="512" viewBox="0 0 512 512" fill="none" xmlns="http://www.w3.org/2000/svg">
<g clip-path="url(#clip0_160_130)">
<path d="M90.6667 7H421.333C471.467 7 512 47.4872 512 97.5635V415.068C512 465.145 471.467 505.632 421.333 505.632H90.6667C40.5333 505.632 0 465.145 0 415.068V97.5635C0 47.4872 40.5333 7 90.6667 7Z" fill="#001E36"/>
<path d="M115.2 356.682V137.411C115.2 135.92 115.84 135.067 117.334 135.067C120.96 135.067 124.374 135.067 129.28 134.854C134.4 134.641 139.734 134.641 145.494 134.428C151.254 134.215 157.44 134.215 164.054 134.002C170.667 133.789 177.067 133.789 183.467 133.789C200.96 133.789 215.467 135.92 227.414 140.395C238.08 144.017 247.894 149.984 256 157.868C262.827 164.687 268.16 172.998 271.574 182.16C274.774 191.11 276.48 200.273 276.48 209.862C276.48 228.188 272.214 243.317 263.68 255.25C255.147 267.184 243.2 276.133 229.334 281.248C214.827 286.575 198.827 288.493 181.334 288.493C176.214 288.493 172.8 288.493 170.667 288.28C168.534 288.066 165.547 288.066 161.494 288.066V356.468C161.707 357.96 160.64 359.239 159.147 359.452C158.934 359.452 158.72 359.452 158.294 359.452H117.76C116.054 359.452 115.2 358.599 115.2 356.682ZM161.707 176.194V247.792C164.694 248.005 167.467 248.218 170.027 248.218H181.334C189.654 248.218 197.974 246.94 205.867 244.383C212.694 242.465 218.667 238.416 223.36 233.089C227.84 227.762 229.974 220.517 229.974 211.141C230.187 204.535 228.48 197.929 225.067 192.176C221.44 186.635 216.32 182.374 210.134 180.03C202.24 176.833 193.707 175.555 184.96 175.768C179.414 175.768 174.507 175.768 170.454 175.981C166.187 175.768 163.2 175.981 161.707 176.194Z" fill="#31A8FF"/>
<path d="M409.6 234.794C403.2 231.384 396.374 229.04 389.12 227.549C381.227 225.844 373.334 224.779 365.227 224.779C360.96 224.565 356.48 225.205 352.427 226.27C349.654 226.909 347.307 228.401 345.814 230.532C344.747 232.237 344.107 234.368 344.107 236.285C344.107 238.203 344.96 240.121 346.24 241.826C348.16 244.17 350.72 246.088 353.494 247.579C358.4 250.136 363.52 252.48 368.64 254.611C380.16 258.447 391.254 263.774 401.494 270.167C408.534 274.642 414.294 280.608 418.347 287.853C421.76 294.672 423.467 302.13 423.254 309.802C423.467 319.817 420.48 329.832 414.934 338.143C408.96 346.666 400.64 353.272 391.04 357.108C380.587 361.583 367.787 363.927 352.427 363.927C342.614 363.927 333.014 363.074 323.414 361.156C315.947 359.878 308.48 357.534 301.654 354.338C300.16 353.485 299.094 351.994 299.307 350.289V313.211C299.307 312.572 299.52 311.719 300.16 311.293C300.8 310.867 301.44 311.08 302.08 311.506C310.4 316.407 319.147 319.817 328.534 321.948C336.64 324.079 345.174 325.144 353.707 325.144C361.814 325.144 367.574 324.079 371.414 322.161C374.827 320.669 377.174 317.047 377.174 313.211C377.174 310.228 375.467 307.458 372.054 304.687C368.64 301.917 361.6 298.721 351.147 294.672C340.267 290.837 330.24 285.722 320.854 279.33C314.24 274.642 308.694 268.462 304.64 261.217C301.227 254.398 299.52 246.94 299.734 239.482C299.734 230.319 302.294 221.582 306.987 213.698C312.32 205.174 320.214 198.355 329.387 194.093C339.414 188.979 352 186.635 367.147 186.635C375.894 186.635 384.854 187.275 393.6 188.553C400 189.405 406.187 191.11 411.947 193.454C412.8 193.667 413.654 194.52 414.08 195.372C414.294 196.224 414.507 197.077 414.507 197.929V232.663C414.507 233.515 414.08 234.368 413.44 234.794C411.52 235.22 410.454 235.22 409.6 234.794Z" fill="#31A8FF"/>
</g>
<defs>
<clipPath id="clip0_160_130">
<rect width="512" height="498.632" fill="white" transform="translate(0 7)"/>
</clipPath>
</defs>
</svg>
