<svg width="512" height="512" viewBox="0 0 512 512" fill="none" xmlns="http://www.w3.org/2000/svg">
<g clip-path="url(#clip0_133_142)">
<g clip-path="url(#clip1_133_142)">
<mask id="mask0_133_142" style="mask-type:luminance" maskUnits="userSpaceOnUse" x="0" y="0" width="512" height="512">
<path d="M512 0H0V512H512V0Z" fill="white"/>
</mask>
<g mask="url(#mask0_133_142)">
<path d="M256 512C397.385 512 512 397.385 512 256C512 114.615 397.385 0 256 0C114.615 0 0 114.615 0 256C0 397.385 114.615 512 256 512Z" fill="black"/>
<path d="M425.26 448.06L196.68 153.6H153.6V358.32H188.06V197.36L398.22 468.9C407.7 462.54 416.74 455.58 425.26 448.06Z" fill="url(#paint0_linear_133_142)"/>
<path d="M361.26 153.6H327.12V358.4H361.26V153.6Z" fill="url(#paint1_linear_133_142)"/>
</g>
</g>
</g>
<defs>
<linearGradient id="paint0_linear_133_142" x1="265.415" y1="363.123" x2="356.152" y2="475.58" gradientUnits="userSpaceOnUse">
<stop stop-color="white"/>
<stop offset="1" stop-color="white" stop-opacity="0"/>
</linearGradient>
<linearGradient id="paint1_linear_133_142" x1="344.166" y1="153.542" x2="343.552" y2="303.945" gradientUnits="userSpaceOnUse">
<stop stop-color="white"/>
<stop offset="1" stop-color="white" stop-opacity="0"/>
</linearGradient>
<clipPath id="clip0_133_142">
<rect width="512" height="512" fill="white"/>
</clipPath>
<clipPath id="clip1_133_142">
<rect width="512" height="512" fill="white"/>
</clipPath>
</defs>
</svg>
