<svg width="512" height="512" viewBox="0 0 512 512" fill="none" xmlns="http://www.w3.org/2000/svg">
<g clip-path="url(#clip0_160_126)">
<path d="M170.35 512C217.445 512 255.667 473.771 255.667 426.667V341.333H170.35C123.256 341.333 85.0342 379.563 85.0342 426.667C85.0342 473.771 123.256 512 170.35 512Z" fill="#0ACF83"/>
<path d="M85.0342 256C85.0342 208.896 123.256 170.667 170.35 170.667H255.667V341.333H170.35C123.256 341.333 85.0342 303.104 85.0342 256Z" fill="#A259FF"/>
<path d="M85.0342 85.3333C85.0342 38.2293 123.256 0 170.35 0H255.667V170.667H170.35C123.256 170.667 85.0342 132.437 85.0342 85.3333Z" fill="#F24E1E"/>
<path d="M255.667 0H340.983C388.077 0 426.299 38.2293 426.299 85.3333C426.299 132.437 388.077 170.667 340.983 170.667H255.667V0Z" fill="#FF7262"/>
<path d="M426.299 256C426.299 303.104 388.077 341.333 340.983 341.333C293.888 341.333 255.667 303.104 255.667 256C255.667 208.896 293.888 170.667 340.983 170.667C388.077 170.667 426.299 208.896 426.299 256Z" fill="#1ABCFE"/>
</g>
<defs>
<clipPath id="clip0_160_126">
<rect width="341.333" height="512" fill="white" transform="translate(85)"/>
</clipPath>
</defs>
</svg>
